<?xml version="1.0" encoding="UTF-8"?>
<svg id="Camada_1" data-name="Camada 1" xmlns="http://www.w3.org/2000/svg" version="1.1" viewBox="0 0 160 80">
  <defs>
    <style>
      .cls-1, .cls-2 {
        stroke-width: 0px;
      }

      .cls-1, .cls-3 {
        fill: #d72626;
      }

      .cls-2, .cls-4 {
        fill: #fff;
      }

      .cls-5 {
        display: none;
        font-family: Anton-Regular, Anton;
        font-size: 32.45px;
      }
    </style>
  </defs>
  <text class="cls-5" transform="translate(3.62 49.8)"><tspan class="cls-4" x="0" y="0">&lt;</tspan><tspan class="cls-3" x="10.42" y="0">Leo</tspan><tspan class="cls-4" x="55.26" y="0">_dev[ ]&gt;</tspan></text>
  <g>
    <path class="cls-2" d="M13.19,46.62l-9.02-5.45v-6.56l9.02-5.42v5.71l-5.42,3.02,5.42,3.05v5.65Z"/>
    <path class="cls-1" d="M15.27,49.8v-27.88h5.58v23.14h5.74v4.74h-11.33Z"/>
    <path class="cls-1" d="M29.45,48.05c-1.06-1.34-1.59-3.34-1.59-6v-9.54c0-2.18.63-3.85,1.88-5,1.25-1.15,3.01-1.72,5.26-1.72,4.56,0,6.85,2.24,6.85,6.72v1.72c0,1.73-.02,3.14-.06,4.22h-8.24v4.61c0,.82.09,1.47.26,1.93.17.47.54.7,1.1.7.43,0,.74-.13.92-.39.18-.26.29-.56.32-.89.03-.33.05-.83.05-1.48v-2.3h5.65v1.36c0,2.77-.54,4.81-1.61,6.12-1.07,1.31-2.92,1.96-5.53,1.96-2.44,0-4.2-.67-5.26-2.01ZM36.2,35.62v-3.05c0-1.71-.42-2.56-1.27-2.56-.95,0-1.43.85-1.43,2.56v3.05h2.69Z"/>
    <path class="cls-1" d="M43.69,42.69v-9.54c0-2.25.63-4.04,1.9-5.37s3-2,5.21-2,3.94.67,5.21,2,1.9,3.12,1.9,5.37v9.54c0,4.91-2.37,7.37-7.11,7.37s-7.11-2.46-7.11-7.37ZM51.81,45.19c.22-.32.32-.77.32-1.33v-11.62c0-1.38-.44-2.08-1.33-2.08s-1.33.69-1.33,2.08v11.62c0,.56.11,1.01.32,1.33.22.33.55.49,1.01.49s.79-.16,1.01-.49Z"/>
    <path class="cls-2" d="M59.66,55.54v-3.7h10.32v3.7h-10.32Z"/>
    <path class="cls-2" d="M73.4,49.07c-.7-.66-1.17-1.54-1.4-2.63s-.34-2.49-.34-4.2l.06-10.71c0-1.69.43-3.07,1.28-4.14s2.06-1.61,3.62-1.61,2.68.51,3.44,1.53v-5.55h5.68v28.04h-5.68v-2.53c-.32.93-.76,1.63-1.31,2.09-.55.47-1.29.7-2.22.7-1.38,0-2.43-.33-3.13-.99ZM79.81,44.79c.17-.55.26-1.29.26-2.22v-9.93c0-.69-.1-1.28-.29-1.75-.19-.48-.54-.71-1.04-.71-.56,0-.94.22-1.12.67-.18.44-.28,1.04-.28,1.8v9.99c0,1.99.45,2.99,1.36,2.99.56,0,.93-.28,1.1-.83Z"/>
    <path class="cls-2" d="M89.42,48.05c-1.06-1.34-1.59-3.34-1.59-6v-9.54c0-2.18.63-3.85,1.88-5,1.25-1.15,3.01-1.72,5.26-1.72,4.56,0,6.85,2.24,6.85,6.72v1.72c0,1.73-.02,3.14-.07,4.22h-8.24v4.61c0,.82.09,1.47.26,1.93.17.47.54.7,1.1.7.43,0,.74-.13.92-.39.18-.26.29-.56.32-.89.03-.33.05-.83.05-1.48v-2.3h5.65v1.36c0,2.77-.54,4.81-1.61,6.12-1.07,1.31-2.92,1.96-5.53,1.96-2.45,0-4.2-.67-5.26-2.01ZM96.17,35.62v-3.05c0-1.71-.42-2.56-1.27-2.56-.95,0-1.43.85-1.43,2.56v3.05h2.69Z"/>
    <path class="cls-2" d="M106.88,49.8l-3.8-23.75h5.68l1.17,12.01.19,3.86.23-3.89,1.3-11.97h5.68l-3.86,23.75h-6.59Z"/>
    <path class="cls-2" d="M118.65,49.8v-27.91h8.79v4.45h-3.21v19.02h3.21v4.45h-8.79Z"/>
    <path class="cls-2" d="M136.15,49.8v-4.45h3.21v-19.02h-3.21v-4.45h8.79v27.91h-8.79Z"/>
    <path class="cls-2" d="M146.76,46.62v-5.65l5.42-3.05-5.42-3.02v-5.71l9.02,5.42v6.56l-9.02,5.45Z"/>
  </g>
</svg>